HIERARCHY
ROOT Hips
{
	OFFSET 0.00000 0.00000 0.00000
	CHANNELS 6 Xposition Yposition Zposition Zrotation Yrotation Xrotation 
	JOINT LHipJoint
	{
		OFFSET 0 0 0
		CHANNELS 3 Zrotation Yrotation Xrotation
		JOINT LeftHip
		{
			OFFSET 1.62329 -1.80800 0.67318
			CHANNELS 3 Zrotation Yrotation Xrotation
			JOINT LeftKnee
			{
				OFFSET 2.57139 -7.06484 0.00000
				CHANNELS 3 Zrotation Yrotation Xrotation
				JOINT LeftAnkle
				{
					OFFSET 2.52017 -6.92413 0.00000
					CHANNELS 3 Zrotation Yrotation Xrotation
					JOINT LeftToe
					{
						OFFSET 0.23295 -0.64001 2.10214
						CHANNELS 3 Zrotation Yrotation Xrotation
						End Site
						{
							OFFSET 0.00000 -0.00000 1.10139
						}
					}
				}
			}
		}
	}
	JOINT RHipJoint
	{
		OFFSET 0 0 0
		CHANNELS 3 Zrotation Yrotation Xrotation
		JOINT RightHip
		{
			OFFSET -1.48061 -1.80800 0.67318
			CHANNELS 3 Zrotation Yrotation Xrotation
			JOINT RightKnee
			{
				OFFSET -2.63258 -7.23296 0.00000
				CHANNELS 3 Zrotation Yrotation Xrotation
				JOINT RightAnkle
				{
					OFFSET -2.54779 -7.00000 0.00000
					CHANNELS 3 Zrotation Yrotation Xrotation
					JOINT RightToe
					{
						OFFSET -0.23067 -0.63376 2.12161
						CHANNELS 3 Zrotation Yrotation Xrotation
						End Site
						{
							OFFSET -0.00000 -0.00000 1.11000
						}
					}
				}
			}
		}
	}
	JOINT lowerback
	{
		OFFSET 0 0 0
		CHANNELS 3 Zrotation Yrotation Xrotation
		JOINT Chest
		{
			OFFSET -0.02108 2.07573 -0.16981
			CHANNELS 3 Zrotation Yrotation Xrotation
			JOINT Chest2
			{
				OFFSET 0.05070 2.08439 -0.03141
				CHANNELS 3 Zrotation Yrotation Xrotation
				JOINT lowerneck
				{
					OFFSET 0 0 0
					CHANNELS 3 Zrotation Yrotation Xrotation
					JOINT Neck
					{
						OFFSET -0.10731 1.60408 0.31370
						CHANNELS 3 Zrotation Yrotation Xrotation
						JOINT Head
						{
							OFFSET 0.08411 1.65679 -0.30822
							CHANNELS 3 Zrotation Yrotation Xrotation
							End Site
							{
								OFFSET 0.03911 1.69149 -0.14146
							}
						}
					}
				}
				JOINT LeftCollar
				{
					OFFSET 0 0 0
					CHANNELS 3 Zrotation Yrotation Xrotation
					JOINT LeftShoulder
					{
						OFFSET 3.52315 0.73219 -0.54694
CHANNELS 3 Zrotation Xrotation Yrotation
						JOINT LeftElbow
						{
OFFSET 0 -5.324620 -0.000000
CHANNELS 3 Zrotation Xrotation Yrotation
							JOINT LeftWrist
							{
OFFSET 0 -3.484020 -0.000000
CHANNELS 3 Zrotation Xrotation Yrotation
								JOINT lhand
								{
									OFFSET 0 0 0
CHANNELS 3 Zrotation Xrotation Yrotation
									JOINT LFingers
									{
OFFSET 0 -0.572480 -0.000000
CHANNELS 3 Zrotation Xrotation Yrotation
										End Site
										{
OFFSET 0 -0.461540 -0.000000
										}
									}
								}
								JOINT LThumb
								{
OFFSET 0 0.000000 0.000000
CHANNELS 3 Zrotation Xrotation Yrotation
									End Site
									{
OFFSET 0 -0.468590 0.468590
									}
								}
							}
						}
					}
				}
				JOINT RightCollar
				{
					OFFSET 0 0 0
					CHANNELS 3 Zrotation Yrotation Xrotation
					JOINT RightShoulder
					{
						OFFSET -3.41766 0.93592 -0.10019
CHANNELS 3 Zrotation Xrotation Yrotation
						JOINT RightElbow
						{
OFFSET 0 -5.335890 -0.000000
CHANNELS 3 Zrotation Xrotation Yrotation
							JOINT RightWrist
							{
OFFSET 0 -3.641340 -0.000000
CHANNELS 3 Zrotation Xrotation Yrotation
								JOINT rhand
								{
									OFFSET 0 0 0
CHANNELS 3 Zrotation Xrotation Yrotation
									JOINT RFingers
									{
OFFSET 0 -0.734810 -0.000000
CHANNELS 3 Zrotation Xrotation Yrotation
										End Site
										{
OFFSET 0 -0.592420 -0.000000
										}
									}
								}
								JOINT RThumb
								{
OFFSET 0 0.000000 0.000000
CHANNELS 3 Zrotation Xrotation Yrotation
									End Site
									{
OFFSET 0 -0.601470 0.601470
									}
								}
							}
						}
					}
				}
			}
		}
	}
}
MOTION
Frames: 4
Frame Time: 0.008333333333333333
1.913596 33.645114 -5.012931 179.975225 -13.485759 -169.694823 0.000000 0.000000 0.000000 -23.799685 -0.681947 -20.665841 2.551576 9.931151 28.754008 0.312293 4.984263 -13.576405 0.550375 -4.746427 -13.187783 0.000000 0.000000 0.000000 21.422836 8.851765 -16.599907 -2.673954 -10.147508 29.455639 -0.745315 2.905582 -15.584273 -0.217160 -2.999816 8.278079 -2.997234 -0.695832 1.477572 1.558894 -0.978780 -0.859457 3.312276 -0.450422 -1.634054 -12.342272 1.694742 -16.996082 0.736145 3.000024 38.128234 2.676423 -1.692331 16.377854 0.000000 0.000000 0.000000 2.298334 -20.210641 -58.750386 65.320852 -57.568680 38.801742 45.212807 65.887342 -22.577959 0.000000 0.000000 0.000000 -7.125000 0.000000 0.000000 19.497045 59.456953 -7.048180 0.000000 0.000000 0.000000 -13.893152 -2.785593 57.882496 -114.049244 -57.697616 -80.666202 12.470019 50.446077 14.937626 0.000000 0.000000 0.000000 7.125000 0.000000 0.000000 35.010326 42.032011 2.977395
1.884745 33.627299 -5.003205 179.861050 -13.513246 -169.396813 0.000000 0.000000 0.000000 -24.079321 -0.519877 -21.329792 2.637951 10.084564 29.250949 0.345740 4.659900 -13.809189 0.374191 -3.928969 -10.876861 0.000000 0.000000 0.000000 21.119666 9.136151 -16.860916 -2.697279 -10.188132 29.588061 -0.786479 2.890234 -16.026080 -0.197230 -2.860059 7.889454 -3.564237 -0.721767 1.502083 1.581612 -1.024280 -0.813099 3.656752 -0.467725 -1.587105 -12.403315 1.741340 -17.017811 0.792071 3.076439 38.132219 2.726140 -1.659478 16.374779 0.000000 0.000000 0.000000 2.276127 -20.816473 -59.387187 65.249701 -57.553729 38.741632 45.815027 66.278547 -22.535067 0.000000 0.000000 0.000000 -7.125000 0.000000 0.000000 20.321520 59.581354 -7.430536 0.000000 0.000000 0.000000 -15.017701 -0.512728 58.472236 -116.140306 -57.253366 -82.429349 9.333184 51.117641 15.201817 0.000000 0.000000 0.000000 7.125000 0.000000 0.000000 32.667770 42.612188 2.184985
1.857123 33.600642 -4.987908 180.131255 -13.556210 -169.306706 0.000000 0.000000 0.000000 -24.126000 0.317096 -22.479206 2.743840 10.268319 29.850173 0.247066 5.383570 -12.909237 0.932815 -6.150980 -17.223555 0.000000 0.000000 0.000000 21.233691 9.489327 -16.972240 -2.716277 -10.220954 29.695184 -0.826434 3.517089 -16.353559 -0.256304 -3.254140 8.987413 -3.616037 -0.715025 1.558010 1.508625 -1.015083 -0.588267 3.608718 -0.470079 -1.388383 -12.272118 1.749000 -17.029118 0.943795 3.036092 37.969763 2.768603 -1.602006 16.289143 0.000000 0.000000 0.000000 2.813134 -20.731320 -59.770339 66.632010 -57.830084 39.910460 47.131882 68.008758 -23.105752 0.000000 0.000000 0.000000 -7.125000 0.000000 0.000000 22.347596 60.669612 -8.795956 0.000000 0.000000 0.000000 -15.467193 1.542207 58.780728 -117.076427 -57.039870 -83.215813 5.725472 52.171498 15.088380 0.000000 0.000000 0.000000 7.125000 0.000000 0.000000 29.698246 42.915201 1.691515
1.823217 33.585738 -4.972358 180.433511 -13.488569 -169.177751 0.000000 0.000000 0.000000 -24.044356 0.980962 -23.313636 2.849750 10.447676 30.439042 0.325725 4.269282 -13.210499 0.828830 -5.807454 -16.227045 0.000000 0.000000 0.000000 21.370190 9.683022 -17.147743 -2.719267 -10.226009 29.711823 -0.849768 4.593481 -16.479633 -0.281843 -3.414385 9.434658 -3.625801 -0.707955 1.608165 1.496602 -1.005914 -0.427354 3.600670 -0.470886 -1.251910 -12.066717 1.811624 -17.005843 0.959848 3.080342 37.835400 2.750556 -1.527980 16.209151 0.000000 0.000000 0.000000 3.048222 -22.240799 -60.853812 65.847245 -57.676735 39.246181 47.960573 68.344185 -23.371818 0.000000 0.000000 0.000000 -7.125000 0.000000 0.000000 23.655426 61.247420 -9.664861 0.000000 0.000000 0.000000 -16.189629 3.308792 59.135032 -116.893209 -57.082521 -83.062090 1.794515 52.957011 14.813980 0.000000 0.000000 0.000000 7.125000 0.000000 0.000000 26.322933 43.100379 1.334478
